<mxfile host="app.diagrams.net" modified="2021-12-23T09:32:59.575Z" agent="5.0 (Windows NT 10.0; Win64; x64) AppleWebKit/537.36 (KHTML, like Gecko) Chrome/93.0.4577.82 Safari/537.36" etag="f_gWKzbrgwPm1HNVOMnP" version="15.7.0" type="github">
  <diagram id="GYI6FgID-_0_a7chxj5U" name="Page-1">
    <mxGraphModel dx="1234" dy="376" grid="1" gridSize="10" guides="1" tooltips="1" connect="1" arrows="1" fold="1" page="1" pageScale="1" pageWidth="827" pageHeight="1169" math="0" shadow="0">
      <root>
        <mxCell id="0" />
        <mxCell id="1" parent="0" />
        <mxCell id="QKoAEYaS_umb7UGnJKnf-4" value="base" style="shape=folder;fontStyle=1;tabWidth=110;tabHeight=30;tabPosition=left;html=1;boundedLbl=1;folderSymbol=triangle;" parent="1" vertex="1">
          <mxGeometry x="260" y="380" width="150" height="80" as="geometry" />
        </mxCell>
        <mxCell id="QKoAEYaS_umb7UGnJKnf-14" style="edgeStyle=orthogonalEdgeStyle;rounded=0;orthogonalLoop=1;jettySize=auto;html=1;entryX=0.5;entryY=1;entryDx=0;entryDy=0;entryPerimeter=0;" parent="1" source="QKoAEYaS_umb7UGnJKnf-8" target="QKoAEYaS_umb7UGnJKnf-4" edge="1">
          <mxGeometry relative="1" as="geometry" />
        </mxCell>
        <mxCell id="QKoAEYaS_umb7UGnJKnf-8" value="component2" style="shape=folder;fontStyle=1;tabWidth=110;tabHeight=30;tabPosition=left;html=1;boundedLbl=1;folderSymbol=triangle;" parent="1" vertex="1">
          <mxGeometry x="440" y="585" width="150" height="80" as="geometry" />
        </mxCell>
        <mxCell id="QKoAEYaS_umb7UGnJKnf-13" style="edgeStyle=orthogonalEdgeStyle;rounded=0;orthogonalLoop=1;jettySize=auto;html=1;entryX=0.5;entryY=1;entryDx=0;entryDy=0;entryPerimeter=0;" parent="1" source="QKoAEYaS_umb7UGnJKnf-9" target="QKoAEYaS_umb7UGnJKnf-4" edge="1">
          <mxGeometry relative="1" as="geometry" />
        </mxCell>
        <mxCell id="QKoAEYaS_umb7UGnJKnf-9" value="component1" style="shape=folder;fontStyle=1;tabWidth=110;tabHeight=30;tabPosition=left;html=1;boundedLbl=1;folderSymbol=triangle;" parent="1" vertex="1">
          <mxGeometry x="90" y="585" width="150" height="80" as="geometry" />
        </mxCell>
      </root>
    </mxGraphModel>
  </diagram>
</mxfile>
